<svg xmlns="http://www.w3.org/2000/svg" viewBox="0 0 512 512" width="512" height="512">
  <!-- Icone de marque GlyphLapse — concept « Grain », style Nothing :
       fond blanc, sablier en matrice de points (rangees 7-5-3-1-3-5-7), le point
       central de l'avant-derniere rangee en rouge #D71921 (grain qui tombe).
       Miroir de app/src/main/res/drawable/ic_launcher.xml. -->

  <!-- fond blanc, coins arrondis facon tuile Nothing -->
  <rect width="512" height="512" rx="112" fill="#FFFFFF"/>

  <!-- sablier : points noirs -->
  <g fill="#0A0A0A">
    <rect x="101.9" y="101.9" width="32.2" height="32.2" rx="8.43"/>
    <rect x="147.9" y="101.9" width="32.2" height="32.2" rx="8.43"/>
    <rect x="193.9" y="101.9" width="32.2" height="32.2" rx="8.43"/>
    <rect x="239.9" y="101.9" width="32.2" height="32.2" rx="8.43"/>
    <rect x="285.9" y="101.9" width="32.2" height="32.2" rx="8.43"/>
    <rect x="331.9" y="101.9" width="32.2" height="32.2" rx="8.43"/>
    <rect x="377.9" y="101.9" width="32.2" height="32.2" rx="8.43"/>
    <rect x="147.9" y="147.9" width="32.2" height="32.2" rx="8.43"/>
    <rect x="193.9" y="147.9" width="32.2" height="32.2" rx="8.43"/>
    <rect x="239.9" y="147.9" width="32.2" height="32.2" rx="8.43"/>
    <rect x="285.9" y="147.9" width="32.2" height="32.2" rx="8.43"/>
    <rect x="331.9" y="147.9" width="32.2" height="32.2" rx="8.43"/>
    <rect x="193.9" y="193.9" width="32.2" height="32.2" rx="8.43"/>
    <rect x="239.9" y="193.9" width="32.2" height="32.2" rx="8.43"/>
    <rect x="285.9" y="193.9" width="32.2" height="32.2" rx="8.43"/>
    <rect x="239.9" y="239.9" width="32.2" height="32.2" rx="8.43"/>
    <rect x="193.9" y="285.9" width="32.2" height="32.2" rx="8.43"/>
    <rect x="239.9" y="285.9" width="32.2" height="32.2" rx="8.43"/>
    <rect x="285.9" y="285.9" width="32.2" height="32.2" rx="8.43"/>
    <rect x="147.9" y="331.9" width="32.2" height="32.2" rx="8.43"/>
    <rect x="193.9" y="331.9" width="32.2" height="32.2" rx="8.43"/>
    <rect x="285.9" y="331.9" width="32.2" height="32.2" rx="8.43"/>
    <rect x="331.9" y="331.9" width="32.2" height="32.2" rx="8.43"/>
    <rect x="101.9" y="377.9" width="32.2" height="32.2" rx="8.43"/>
    <rect x="147.9" y="377.9" width="32.2" height="32.2" rx="8.43"/>
    <rect x="193.9" y="377.9" width="32.2" height="32.2" rx="8.43"/>
    <rect x="239.9" y="377.9" width="32.2" height="32.2" rx="8.43"/>
    <rect x="285.9" y="377.9" width="32.2" height="32.2" rx="8.43"/>
    <rect x="331.9" y="377.9" width="32.2" height="32.2" rx="8.43"/>
    <rect x="377.9" y="377.9" width="32.2" height="32.2" rx="8.43"/>
  </g>

  <!-- grain rouge : point central de l'avant-derniere rangee -->
  <rect x="239.9" y="331.9" width="32.2" height="32.2" rx="8.43" fill="#D71921"/>
</svg>
